<?xml version="1.0" encoding="utf-8"?>
<!-- Generator: Adobe Illustrator 19.2.1, SVG Export Plug-In . SVG Version: 6.00 Build 0)  -->
<svg version="1.1" xmlns="http://www.w3.org/2000/svg" xmlns:xlink="http://www.w3.org/1999/xlink" x="0px" y="0px" width="24px"
	 height="24px" viewBox="0 0 24 24" enable-background="new 0 0 24 24" xml:space="preserve">
<g id="Filled_Icons_1_">
	<g id="Filled_Icons">
		<path d="M12.002,0c-6.617,0-12,5.385-12,12c0,6.616,5.383,12,12,12c6.616,0,12-5.384,12-12C24.001,5.385,18.618,0,12.002,0z
			 M17.342,8.866l-7.502,7.001c-0.197,0.182-0.503,0.182-0.695-0.013l-2.498-2.5c-0.195-0.195-0.195-0.512,0-0.707
			c0.195-0.196,0.512-0.196,0.707,0l2.158,2.158l7.147-6.67c0.201-0.188,0.518-0.178,0.706,0.024
			C17.555,8.36,17.544,8.677,17.342,8.866z"/>
	</g>
	<g id="New_icons">
	</g>
</g>
<g id="Invisible_Shape">
	<rect fill="none" width="24" height="24"/>
</g>
</svg>
