<?xml version="1.0" encoding="utf-8"?>
<!-- Generator: Adobe Illustrator 19.2.1, SVG Export Plug-In . SVG Version: 6.00 Build 0)  -->
<svg version="1.1" xmlns="http://www.w3.org/2000/svg" xmlns:xlink="http://www.w3.org/1999/xlink" x="0px" y="0px" width="24px"
	 height="24px" viewBox="0 0 24 24" enable-background="new 0 0 24 24" xml:space="preserve">
<g id="Filled_Icons_1_">
	<g id="Filled_Icons">
		<path d="M22.947,23.28l-11-22c-0.17-0.339-0.726-0.339-0.895,0l-11,22c-0.166,0.33,0.074,0.724,0.447,0.724h22
			C22.873,24.004,23.113,23.61,22.947,23.28z M10.999,9.156c0.001-0.276,0.225-0.5,0.501-0.5c0.275,0,0.5,0.224,0.499,0.5v7.652
			c0.001,0.275-0.224,0.5-0.499,0.5c-0.276,0-0.5-0.225-0.501-0.5V9.156z M11.5,21.112c-0.529,0-0.957-0.428-0.957-0.956
			c0-0.527,0.428-0.957,0.957-0.957c0.527,0,0.956,0.43,0.956,0.957C12.456,20.685,12.027,21.112,11.5,21.112z"/>
	</g>
	<g id="New_icons">
	</g>
</g>
<g id="Invisible_Shape">
	<rect fill="none" width="24" height="24"/>
</g>
</svg>
