<?xml version="1.0" encoding="UTF-8" standalone="no"?>
<!-- Generator: Adobe Illustrator 19.2.1, SVG Export Plug-In . SVG Version: 6.00 Build 0)  -->

<svg
   xmlns:dc="http://purl.org/dc/elements/1.1/"
   xmlns:cc="http://creativecommons.org/ns#"
   xmlns:rdf="http://www.w3.org/1999/02/22-rdf-syntax-ns#"
   xmlns:svg="http://www.w3.org/2000/svg"
   xmlns="http://www.w3.org/2000/svg"
   xmlns:sodipodi="http://sodipodi.sourceforge.net/DTD/sodipodi-0.dtd"
   xmlns:inkscape="http://www.inkscape.org/namespaces/inkscape"
   version="1.1"
   x="0px"
   y="0px"
   width="24px"
   height="24px"
   viewBox="0 0 24 24"
   enable-background="new 0 0 24 24"
   xml:space="preserve"
   id="svg4662"
   sodipodi:docname="exclamation.svg"
   inkscape:version="0.92.3 (2405546, 2018-03-11)"><metadata
   id="metadata4668"><rdf:RDF><cc:Work
       rdf:about=""><dc:format>image/svg+xml</dc:format><dc:type
         rdf:resource="http://purl.org/dc/dcmitype/StillImage" /></cc:Work></rdf:RDF></metadata><defs
   id="defs4666" /><sodipodi:namedview
   pagecolor="#ffffff"
   bordercolor="#666666"
   borderopacity="1"
   objecttolerance="10"
   gridtolerance="10"
   guidetolerance="10"
   inkscape:pageopacity="0"
   inkscape:pageshadow="2"
   inkscape:window-width="1920"
   inkscape:window-height="1017"
   id="namedview4664"
   showgrid="false"
   inkscape:zoom="35.333333"
   inkscape:cx="12"
   inkscape:cy="12"
   inkscape:window-x="-8"
   inkscape:window-y="-8"
   inkscape:window-maximized="1"
   inkscape:current-layer="svg4662" />
<g
   id="Filled_Icons_1_"
   style="fill:#d0021b;fill-opacity:1">
	<g
   id="Filled_Icons"
   style="fill:#d0021b;fill-opacity:1">
		<path
   d="M11.499,1C5.148,1,0,6.148,0,12.499s5.148,11.499,11.499,11.499s11.499-5.148,11.499-11.499S17.85,1,11.499,1z M10.999,7    C11,6.724,11.224,6.5,11.5,6.5c0.275,0,0.5,0.224,0.499,0.5v7c0.001,0.276-0.224,0.5-0.499,0.5c-0.276,0-0.5-0.224-0.501-0.5V7z     M11.518,18.5c-0.006,0-0.012,0-0.018,0c-0.545,0-0.991-0.435-1-0.982c-0.01-0.552,0.43-1.008,0.982-1.017    c0.006,0,0.012-0.001,0.018-0.001c0.545,0,0.99,0.437,1,0.983C12.51,18.035,12.068,18.49,11.518,18.5z"
   id="path4654"
   style="fill:#d0021b;fill-opacity:1" />
	</g>
	<g
   id="New_icons"
   style="fill:#d0021b;fill-opacity:1">
	</g>
</g>
<g
   id="Invisible_Shape">
	<rect
   fill="none"
   width="24"
   height="24"
   id="rect4659" />
</g>
</svg>