<?xml version="1.0" encoding="utf-8"?>
<!-- Generator: Adobe Illustrator 19.2.1, SVG Export Plug-In . SVG Version: 6.00 Build 0)  -->
<svg version="1.1" xmlns="http://www.w3.org/2000/svg" xmlns:xlink="http://www.w3.org/1999/xlink" x="0px" y="0px" width="24px"
	 height="24px" viewBox="0 0 24 24" enable-background="new 0 0 24 24" xml:space="preserve">
<g id="Filled_Icons_1_">
	<g id="Filled_Icons">
		<path d="M11.499,1C5.148,1,0,6.148,0,12.499s5.148,11.499,11.499,11.499s11.499-5.148,11.499-11.499S17.85,1,11.499,1z M10.999,7
			C11,6.724,11.224,6.5,11.5,6.5c0.275,0,0.5,0.224,0.499,0.5v7c0.001,0.276-0.224,0.5-0.499,0.5c-0.276,0-0.5-0.224-0.501-0.5V7z
			 M11.518,18.5c-0.006,0-0.012,0-0.018,0c-0.545,0-0.991-0.435-1-0.982c-0.01-0.552,0.43-1.008,0.982-1.017
			c0.006,0,0.012-0.001,0.018-0.001c0.545,0,0.99,0.437,1,0.983C12.51,18.035,12.068,18.49,11.518,18.5z"/>
	</g>
	<g id="New_icons">
	</g>
</g>
<g id="Invisible_Shape">
	<rect fill="none" width="24" height="24"/>
</g>
</svg>
