<?xml version="1.0" encoding="utf-8"?>
<!-- Generator: Adobe Illustrator 19.2.1, SVG Export Plug-In . SVG Version: 6.00 Build 0)  -->
<svg version="1.1" xmlns="http://www.w3.org/2000/svg" xmlns:xlink="http://www.w3.org/1999/xlink" x="0px" y="0px" width="24px"
	 height="24px" viewBox="0 0 24 24" enable-background="new 0 0 24 24" xml:space="preserve">
<g id="Filled_Icons_1_">
	<g id="Filled_Icons">
		<path d="M11.5,1C5.148,1,0,6.148,0,12.5S5.148,24,11.5,24S23,18.852,23,12.5S17.852,1,11.5,1z M11.5,19c-0.553,0-1-0.447-1-1
			c0-0.552,0.447-1,1-1c0.551,0,1,0.448,1,1C12.5,18.553,12.051,19,11.5,19z M12,12.965V15.5c0,0.276-0.225,0.5-0.5,0.5
			c-0.276,0-0.5-0.224-0.5-0.5v-3c0-0.276,0.224-0.5,0.5-0.5c1.378,0,2.5-1.121,2.5-2.5S12.878,7,11.5,7C10.121,7,9,8.121,9,9.5
			C9,9.776,8.775,10,8.5,10C8.224,10,8,9.776,8,9.5C8,7.57,9.569,6,11.5,6C13.43,6,15,7.57,15,9.5C15,11.26,13.693,12.721,12,12.965
			z"/>
	</g>
	<g id="New_icons">
	</g>
</g>
<g id="Invisible_Shape">
	<rect fill="none" width="24" height="24"/>
</g>
</svg>
