<?xml version="1.0" encoding="UTF-8" standalone="no"?>
<!-- Generator: Adobe Illustrator 19.2.1, SVG Export Plug-In . SVG Version: 6.00 Build 0)  -->

<svg
   xmlns:dc="http://purl.org/dc/elements/1.1/"
   xmlns:cc="http://creativecommons.org/ns#"
   xmlns:rdf="http://www.w3.org/1999/02/22-rdf-syntax-ns#"
   xmlns:svg="http://www.w3.org/2000/svg"
   xmlns="http://www.w3.org/2000/svg"
   xmlns:sodipodi="http://sodipodi.sourceforge.net/DTD/sodipodi-0.dtd"
   xmlns:inkscape="http://www.inkscape.org/namespaces/inkscape"
   version="1.1"
   x="0px"
   y="0px"
   width="24px"
   height="24px"
   viewBox="0 0 24 24"
   enable-background="new 0 0 24 24"
   xml:space="preserve"
   id="svg34"
   sodipodi:docname="missing_accept.svg"
   inkscape:version="0.92.3 (2405546, 2018-03-11)"><metadata
   id="metadata40"><rdf:RDF><cc:Work
       rdf:about=""><dc:format>image/svg+xml</dc:format><dc:type
         rdf:resource="http://purl.org/dc/dcmitype/StillImage" /><dc:title></dc:title></cc:Work></rdf:RDF></metadata><defs
   id="defs38" /><sodipodi:namedview
   pagecolor="#ffffff"
   bordercolor="#666666"
   borderopacity="1"
   objecttolerance="10"
   gridtolerance="10"
   guidetolerance="10"
   inkscape:pageopacity="0"
   inkscape:pageshadow="2"
   inkscape:window-width="1920"
   inkscape:window-height="1017"
   id="namedview36"
   showgrid="false"
   inkscape:zoom="35.333333"
   inkscape:cx="7.4009434"
   inkscape:cy="12"
   inkscape:window-x="-8"
   inkscape:window-y="-8"
   inkscape:window-maximized="1"
   inkscape:current-layer="Filled_Icons_1_-8" />
<g
   id="Filled_Icons_1_">
	<g
   id="Filled_Icons">
		<path
   d="M12.002,0c-6.617,0-12,5.385-12,12c0,6.616,5.383,12,12,12c6.616,0,12-5.384,12-12C24.001,5.385,18.618,0,12.002,0z     M17.342,8.866l-7.502,7.001c-0.197,0.182-0.503,0.182-0.695-0.013l-2.498-2.5c-0.195-0.195-0.195-0.512,0-0.707    c0.195-0.196,0.512-0.196,0.707,0l2.158,2.158l7.147-6.67c0.201-0.188,0.518-0.178,0.706,0.024    C17.555,8.36,17.544,8.677,17.342,8.866z"
   id="path26"
   style="fill:#72a544;fill-opacity:1" />
	<g
   transform="matrix(0.52173913,0,0,0.52173913,12,11.478261)"
   id="Filled_Icons_1_-8"
   style="fill:#0272d0;fill-opacity:1"><g
     id="g857"><g
       style="fill:#0272d0;fill-opacity:1"
       id="Filled_Icons-8"><path
         id="path851"
         d="M 11.5,1 C 5.148,1 0,6.148 0,12.5 0,18.852 5.148,24 11.5,24 17.852,24 23,18.852 23,12.5 23,6.148 17.852,1 11.5,1 Z"
         style="fill:#0272d0;fill-opacity:1" /><path
         d="M 12,12.965 V 15.5 C 12,15.776 11.775,16 11.5,16 11.224,16 11,15.776 11,15.5 v -3 C 11,12.224 11.224,12 11.5,12 12.878,12 14,10.879 14,9.5 14,8.121 12.878,7 11.5,7 10.121,7 9,8.121 9,9.5 9,9.776 8.775,10 8.5,10 8.224,10 8,9.776 8,9.5 8,7.57 9.569,6 11.5,6 13.43,6 15,7.57 15,9.5 c 0,1.76 -1.307,3.221 -3,3.465 z M 11.5,19 c -0.553,0 -1,-0.447 -1,-1 0,-0.552 0.447,-1 1,-1 0.551,0 1,0.448 1,1 0,0.553 -0.449,1 -1,1 z"
         style="fill:#ffffff;fill-opacity:1"
         id="path4694" /></g></g><g
     id="New_icons-4"
     style="fill:#0272d0;fill-opacity:1" /></g></g>
	<g
   id="New_icons">
	</g>
</g>
<g
   id="Invisible_Shape">
	<rect
   fill="none"
   width="24"
   height="24"
   id="rect31" />
</g>
</svg>