<?xml version="1.0" encoding="UTF-8" standalone="no"?>
<!-- Generator: Adobe Illustrator 19.2.1, SVG Export Plug-In . SVG Version: 6.00 Build 0)  -->

<svg
   xmlns:dc="http://purl.org/dc/elements/1.1/"
   xmlns:cc="http://creativecommons.org/ns#"
   xmlns:rdf="http://www.w3.org/1999/02/22-rdf-syntax-ns#"
   xmlns:svg="http://www.w3.org/2000/svg"
   xmlns="http://www.w3.org/2000/svg"
   xmlns:sodipodi="http://sodipodi.sourceforge.net/DTD/sodipodi-0.dtd"
   xmlns:inkscape="http://www.inkscape.org/namespaces/inkscape"
   version="1.1"
   x="0px"
   y="0px"
   width="24px"
   height="24px"
   viewBox="0 0 24 24"
   enable-background="new 0 0 24 24"
   xml:space="preserve"
   id="svg4702"
   sodipodi:docname="missing.svg"
   inkscape:version="0.92.3 (2405546, 2018-03-11)"><metadata
   id="metadata4708"><rdf:RDF><cc:Work
       rdf:about=""><dc:format>image/svg+xml</dc:format><dc:type
         rdf:resource="http://purl.org/dc/dcmitype/StillImage" /></cc:Work></rdf:RDF></metadata><defs
   id="defs4706" /><sodipodi:namedview
   pagecolor="#ffffff"
   bordercolor="#666666"
   borderopacity="1"
   objecttolerance="10"
   gridtolerance="10"
   guidetolerance="10"
   inkscape:pageopacity="0"
   inkscape:pageshadow="2"
   inkscape:window-width="1920"
   inkscape:window-height="1017"
   id="namedview4704"
   showgrid="false"
   inkscape:zoom="35.333333"
   inkscape:cx="12"
   inkscape:cy="12"
   inkscape:window-x="-8"
   inkscape:window-y="-8"
   inkscape:window-maximized="1"
   inkscape:current-layer="svg4702" />
<g
   id="Filled_Icons_1_"
   style="fill:#0272d0;fill-opacity:1">
	<g
   id="Filled_Icons"
   style="fill:#0272d0;fill-opacity:1">
		<path
   d="M11.5,1C5.148,1,0,6.148,0,12.5S5.148,24,11.5,24S23,18.852,23,12.5S17.852,1,11.5,1z M11.5,19c-0.553,0-1-0.447-1-1    c0-0.552,0.447-1,1-1c0.551,0,1,0.448,1,1C12.5,18.553,12.051,19,11.5,19z M12,12.965V15.5c0,0.276-0.225,0.5-0.5,0.5    c-0.276,0-0.5-0.224-0.5-0.5v-3c0-0.276,0.224-0.5,0.5-0.5c1.378,0,2.5-1.121,2.5-2.5S12.878,7,11.5,7C10.121,7,9,8.121,9,9.5    C9,9.776,8.775,10,8.5,10C8.224,10,8,9.776,8,9.5C8,7.57,9.569,6,11.5,6C13.43,6,15,7.57,15,9.5C15,11.26,13.693,12.721,12,12.965    z"
   id="path4694"
   style="fill:#0272d0;fill-opacity:1" />
	</g>
	<g
   id="New_icons"
   style="fill:#0272d0;fill-opacity:1">
	</g>
</g>
<g
   id="Invisible_Shape">
	<rect
   fill="none"
   width="24"
   height="24"
   id="rect4699" />
</g>
</svg>