<?xml version="1.0" encoding="UTF-8" standalone="no"?>
<!-- Generator: Adobe Illustrator 19.2.1, SVG Export Plug-In . SVG Version: 6.00 Build 0)  -->

<svg
   xmlns:dc="http://purl.org/dc/elements/1.1/"
   xmlns:cc="http://creativecommons.org/ns#"
   xmlns:rdf="http://www.w3.org/1999/02/22-rdf-syntax-ns#"
   xmlns:svg="http://www.w3.org/2000/svg"
   xmlns="http://www.w3.org/2000/svg"
   xmlns:sodipodi="http://sodipodi.sourceforge.net/DTD/sodipodi-0.dtd"
   xmlns:inkscape="http://www.inkscape.org/namespaces/inkscape"
   version="1.1"
   x="0px"
   y="0px"
   width="24px"
   height="24px"
   viewBox="0 0 24 24"
   enable-background="new 0 0 24 24"
   xml:space="preserve"
   id="svg4738"
   sodipodi:docname="not_run.svg"
   inkscape:version="0.92.3 (2405546, 2018-03-11)"><metadata
   id="metadata4744"><rdf:RDF><cc:Work
       rdf:about=""><dc:format>image/svg+xml</dc:format><dc:type
         rdf:resource="http://purl.org/dc/dcmitype/StillImage" /></cc:Work></rdf:RDF></metadata><defs
   id="defs4742" /><sodipodi:namedview
   pagecolor="#ffffff"
   bordercolor="#666666"
   borderopacity="1"
   objecttolerance="10"
   gridtolerance="10"
   guidetolerance="10"
   inkscape:pageopacity="0"
   inkscape:pageshadow="2"
   inkscape:window-width="1920"
   inkscape:window-height="1017"
   id="namedview4740"
   showgrid="false"
   inkscape:zoom="35.333333"
   inkscape:cx="12"
   inkscape:cy="12"
   inkscape:window-x="-8"
   inkscape:window-y="-8"
   inkscape:window-maximized="1"
   inkscape:current-layer="svg4738" />
<g
   id="Filled_Icon"
   style="fill:#646464;fill-opacity:1">
	<path
   d="M12,24c6.617,0,12-5.383,12-12c0-6.616-5.383-12-12-12S0,5.384,0,12C0,18.617,5.383,24,12,24z M7,7.5   C7,7.224,7.224,7,7.5,7h3C10.776,7,11,7.224,11,7.5v9c0,0.276-0.224,0.5-0.5,0.5h-3C7.224,17,7,16.776,7,16.5V7.5z M13,16.5v-9   C13,7.224,13.224,7,13.5,7h3C16.776,7,17,7.224,17,7.5v9c0,0.276-0.224,0.5-0.5,0.5h-3C13.224,17,13,16.776,13,16.5z"
   id="path4732"
   style="fill:#646464;fill-opacity:1" />
</g>
<g
   id="Invisible_Shape">
	<rect
   fill="none"
   width="24"
   height="24"
   id="rect4735" />
</g>
</svg>