<?xml version="1.0" encoding="utf-8"?>
<!-- Generator: Adobe Illustrator 19.2.1, SVG Export Plug-In . SVG Version: 6.00 Build 0)  -->
<svg version="1.1" xmlns="http://www.w3.org/2000/svg" xmlns:xlink="http://www.w3.org/1999/xlink" x="0px" y="0px" width="24px"
	 height="24px" viewBox="0 0 24 24" enable-background="new 0 0 24 24" xml:space="preserve">
<g id="Filled_Icon">
	<path d="M12,24c6.617,0,12-5.383,12-12c0-6.616-5.383-12-12-12S0,5.384,0,12C0,18.617,5.383,24,12,24z M8,7.5
		c0-0.394,0.441-0.639,0.777-0.415L12.5,9.566V7.5c0-0.418,0.487-0.655,0.817-0.387l5.5,4.5c0.243,0.198,0.246,0.571,0,0.774
		l-5.5,4.5C12.991,17.152,12.5,16.923,12.5,16.5v-2.065l-3.723,2.481C8.444,17.139,8,16.897,8,16.5V7.5z"/>
</g>
<g id="Invisible_Shape">
	<rect fill="none" width="24" height="24"/>
</g>
</svg>
