<?xml version="1.0" encoding="UTF-8" standalone="no"?>
<!-- Generator: Adobe Illustrator 19.2.1, SVG Export Plug-In . SVG Version: 6.00 Build 0)  -->

<svg
   xmlns:dc="http://purl.org/dc/elements/1.1/"
   xmlns:cc="http://creativecommons.org/ns#"
   xmlns:rdf="http://www.w3.org/1999/02/22-rdf-syntax-ns#"
   xmlns:svg="http://www.w3.org/2000/svg"
   xmlns="http://www.w3.org/2000/svg"
   xmlns:sodipodi="http://sodipodi.sourceforge.net/DTD/sodipodi-0.dtd"
   xmlns:inkscape="http://www.inkscape.org/namespaces/inkscape"
   version="1.1"
   x="0px"
   y="0px"
   width="24px"
   height="24px"
   viewBox="0 0 24 24"
   enable-background="new 0 0 24 24"
   xml:space="preserve"
   id="svg42"
   sodipodi:docname="testup.svg"
   inkscape:version="0.92.1 r15371"><metadata
     id="metadata48"><rdf:RDF><cc:Work
         rdf:about=""><dc:format>image/svg+xml</dc:format><dc:type
           rdf:resource="http://purl.org/dc/dcmitype/StillImage" /><dc:title></dc:title></cc:Work></rdf:RDF></metadata><defs
     id="defs46" /><sodipodi:namedview
     pagecolor="#ffffff"
     bordercolor="#666666"
     borderopacity="1"
     objecttolerance="10"
     gridtolerance="10"
     guidetolerance="10"
     inkscape:pageopacity="0"
     inkscape:pageshadow="2"
     inkscape:window-width="1920"
     inkscape:window-height="1017"
     id="namedview44"
     showgrid="true"
     inkscape:zoom="35.333333"
     inkscape:cx="12"
     inkscape:cy="12"
     inkscape:window-x="-8"
     inkscape:window-y="-8"
     inkscape:window-maximized="1"
     inkscape:current-layer="svg42"><inkscape:grid
       type="xygrid"
       id="grid4587" /></sodipodi:namedview><g
     id="Filled_Icon"><g
       id="g36" /></g><g
     id="Invisible_Shape"><rect
       fill="none"
       width="24"
       height="24"
       id="rect39" /></g><path
     id="path53"
     style="fill:#ca1116;fill-opacity:1"
     d="m 18.499,12.99975 h -7.999751 c -0.276,0 -0.5,-0.225 -0.5,-0.5 0,-0.277 0.224,-0.500001 0.5,-0.500001 H 18.499 c 0.275999,0 0.5,0.223001 0.5,0.500001 0,0.275 -0.224001,0.5 -0.5,0.5 z m 0,4 h -7.999751 c -0.276,0 -0.5,-0.225 -0.5,-0.5 0,-0.277 0.224,-0.5 0.5,-0.5 H 18.499 c 0.275999,0 0.5,0.223 0.5,0.5 0,0.275 -0.224001,0.5 -0.5,0.5 z m -9.64575,-6.646001 -2.5,2.500001 c -0.195,0.195 -0.512,0.195 -0.707,0 l -1.5,-1.500001 c -0.195,-0.195 -0.195,-0.512 0,-0.707 0.195,-0.195 0.512,-0.195 0.707,0 l 1.146,1.146 2.146,-2.147 c 0.195,-0.195 0.512,-0.195 0.707,0 0.195,0.195 0.196,0.512 10e-4,0.708 z m 0,4.500001 -2.5,2.5 c -0.195,0.195 -0.512,0.195 -0.707,0 l -1.5,-1.5 c -0.195,-0.195 -0.195,-0.512 0,-0.707 0.195,-0.195 0.512,-0.195 0.707,0 l 1.146,1.146 2.146,-2.147 c 0.195,-0.195 0.512,-0.195 0.707,0 0.195,0.195 0.196,0.512 10e-4,0.708 z M 0,18.5 C 0,19.879 1.121,21 2.5,21 h 19 C 22.878,21 24,19.879 24,18.5 V 8 H 0 Z M 21.5,2 H 2.5 C 1.121,2 0,3.121 0,4.5 V 7 H 24 V 4.5 C 24,3.121 22.878,2 21.5,2 Z M 4,6 C 3.448,6 3,5.552 3,5 3,4.448 3.448,4 4,4 4.551,4 5,4.448 5,5 5,5.552 4.551,6 4,6 Z M 7,6 C 6.448,6 6,5.552 6,5 6,4.448 6.448,4 7,4 7.551,4 8,4.448 8,5 8,5.552 7.551,6 7,6 Z m 3,0 C 9.448,6 9,5.552 9,5 9,4.448 9.448,4 10,4 c 0.551,0 1,0.448 1,1 0,0.552 -0.449,1 -1,1 z" /></svg>