<?xml version="1.0" encoding="UTF-8" standalone="no"?>
<!-- Generator: Adobe Illustrator 19.2.1, SVG Export Plug-In . SVG Version: 6.00 Build 0)  -->

<svg
   xmlns:dc="http://purl.org/dc/elements/1.1/"
   xmlns:cc="http://creativecommons.org/ns#"
   xmlns:rdf="http://www.w3.org/1999/02/22-rdf-syntax-ns#"
   xmlns:svg="http://www.w3.org/2000/svg"
   xmlns="http://www.w3.org/2000/svg"
   xmlns:sodipodi="http://sodipodi.sourceforge.net/DTD/sodipodi-0.dtd"
   xmlns:inkscape="http://www.inkscape.org/namespaces/inkscape"
   version="1.1"
   x="0px"
   y="0px"
   width="24px"
   height="24px"
   viewBox="0 0 24 24"
   enable-background="new 0 0 24 24"
   xml:space="preserve"
   id="svg5746"
   sodipodi:docname="random.svg"
   inkscape:version="0.92.1 r15371"><metadata
     id="metadata5752"><rdf:RDF><cc:Work
         rdf:about=""><dc:format>image/svg+xml</dc:format><dc:type
           rdf:resource="http://purl.org/dc/dcmitype/StillImage" /><dc:title></dc:title></cc:Work></rdf:RDF></metadata><defs
     id="defs5750" /><sodipodi:namedview
     pagecolor="#ffffff"
     bordercolor="#666666"
     borderopacity="1"
     objecttolerance="10"
     gridtolerance="10"
     guidetolerance="10"
     inkscape:pageopacity="0"
     inkscape:pageshadow="2"
     inkscape:window-width="1920"
     inkscape:window-height="1017"
     id="namedview5748"
     showgrid="false"
     inkscape:zoom="9.8333333"
     inkscape:cx="12"
     inkscape:cy="12"
     inkscape:window-x="-8"
     inkscape:window-y="-8"
     inkscape:window-maximized="1"
     inkscape:current-layer="svg5746" /><g
     id="Filled_Icons_1_"
     style="fill:#202020;fill-opacity:1"><g
       id="Filled_Icons"
       style="fill:#202020;fill-opacity:1"><g
         id="g5738"
         style="fill:#202020;fill-opacity:1"><path
           d="M11.089,8.449C10.493,7.414,8.808,5.006,5.994,5h-5c-0.553,0-1,0.448-1,1c0,0.553,0.447,1,1,1h4.998     c1.77,0.004,2.941,1.712,3.363,2.445c0.275,0.478,0.886,0.644,1.364,0.369C11.199,9.539,11.364,8.928,11.089,8.449z"
           id="path5732"
           style="fill:#202020;fill-opacity:1" /><path
           d="M17.998,7h3.133l-0.963,1.445c-0.307,0.46-0.183,1.08,0.277,1.387c0.46,0.306,1.081,0.183,1.387-0.277l2-3     c0.224-0.336,0.224-0.773,0-1.109l-2-3c-0.306-0.46-0.927-0.583-1.387-0.277c-0.46,0.307-0.584,0.927-0.277,1.387L21.131,5     h-3.133c-5.703,0-7.791,11-12,11c-0.002,0-0.003,0-0.004,0h-5c-0.553,0-1,0.448-1,1c0,0.553,0.447,1,1,1h4.998     c0.003,0,0.006,0,0.009,0C11.688,18,13.795,7,17.998,7z"
           id="path5734"
           style="fill:#202020;fill-opacity:1" /><path
           d="M21.832,13.445c-0.306-0.46-0.927-0.583-1.387-0.277c-0.46,0.307-0.584,0.927-0.277,1.387L21.131,16h-3.146     c-1.702-0.003-3.062-1.266-3.722-2.014c-0.365-0.414-0.997-0.454-1.411-0.089c-0.414,0.365-0.454,0.997-0.089,1.411     c0.882,1.001,2.732,2.68,5.217,2.685l3.152,0.004l-0.965,1.448c-0.307,0.46-0.183,1.08,0.277,1.387     c0.46,0.306,1.081,0.183,1.387-0.277l2-3c0.224-0.336,0.224-0.773,0-1.109L21.832,13.445z"
           id="path5736"
           style="fill:#202020;fill-opacity:1" /></g></g><g
       id="New_icons"
       style="fill:#202020;fill-opacity:1" /></g><g
     id="Invisible_Shape"><rect
       fill="none"
       width="24"
       height="24"
       id="rect5743" /></g></svg>