<?xml version="1.0" encoding="UTF-8" standalone="no"?>
<!-- Generator: Adobe Illustrator 19.2.1, SVG Export Plug-In . SVG Version: 6.00 Build 0)  -->

<svg
   xmlns:dc="http://purl.org/dc/elements/1.1/"
   xmlns:cc="http://creativecommons.org/ns#"
   xmlns:rdf="http://www.w3.org/1999/02/22-rdf-syntax-ns#"
   xmlns:svg="http://www.w3.org/2000/svg"
   xmlns="http://www.w3.org/2000/svg"
   xmlns:sodipodi="http://sodipodi.sourceforge.net/DTD/sodipodi-0.dtd"
   xmlns:inkscape="http://www.inkscape.org/namespaces/inkscape"
   version="1.1"
   x="0px"
   y="0px"
   width="24px"
   height="24px"
   viewBox="0 0 24 24"
   enable-background="new 0 0 24 24"
   xml:space="preserve"
   id="svg5181"
   sodipodi:docname="rerun.svg"
   inkscape:version="0.92.1 r15371"><metadata
     id="metadata5187"><rdf:RDF><cc:Work
         rdf:about=""><dc:format>image/svg+xml</dc:format><dc:type
           rdf:resource="http://purl.org/dc/dcmitype/StillImage" /><dc:title></dc:title></cc:Work></rdf:RDF></metadata><defs
     id="defs5185" /><sodipodi:namedview
     pagecolor="#ffffff"
     bordercolor="#666666"
     borderopacity="1"
     objecttolerance="10"
     gridtolerance="10"
     guidetolerance="10"
     inkscape:pageopacity="0"
     inkscape:pageshadow="2"
     inkscape:window-width="1920"
     inkscape:window-height="1017"
     id="namedview5183"
     showgrid="false"
     inkscape:zoom="9.8333333"
     inkscape:cx="12"
     inkscape:cy="12"
     inkscape:window-x="-8"
     inkscape:window-y="-8"
     inkscape:window-maximized="1"
     inkscape:current-layer="svg5181" /><g
     id="Filled_Icons"
     style="fill:#202020;fill-opacity:1"><g
       id="g5175"
       style="fill:#202020;fill-opacity:1"><path
         d="M12,10c-2.757,0-5,2.243-5,5s2.243,5,5,5s5-2.243,5-5S14.757,10,12,10z M13.5,16h-2c-0.276,0-0.5-0.224-0.5-0.5v-3    c0-0.276,0.224-0.5,0.5-0.5s0.5,0.224,0.5,0.5V15h1.5c0.276,0,0.5,0.224,0.5,0.5S13.776,16,13.5,16z"
         id="path5171"
         style="fill:#202020;fill-opacity:1" /><path
         d="M20.854,6.147l-6-6C14.76,0.053,14.632,0,14.5,0h-11C3.224,0,3,0.224,3,0.5v23C3,23.776,3.224,24,3.5,24h17    c0.276,0,0.5-0.224,0.5-0.5v-17C21,6.367,20.947,6.24,20.854,6.147z M12,21c-3.309,0-6-2.69-6-6c0-3.309,2.691-6,6-6    c3.308,0,6,2.691,6,6C18,18.31,15.308,21,12,21z M14,7V1l6,6H14z"
         id="path5173"
         style="fill:#202020;fill-opacity:1" /></g></g><g
     id="Invisible_Shape"><rect
       fill="none"
       width="24"
       height="24"
       id="rect5178" /></g></svg>